Coordinates
version=1
nRows=19
nColumns=24
inDegrees=yes

Units are S.I. units (second, meters, Newtons, ...)
Angles are in degrees.

endheader
time	pelvis_tilt	pelvis_list	pelvis_rotation	pelvis_tx	pelvis_ty	pelvis_tz	hip_flexion_r	hip_adduction_r	hip_rotation_r	knee_angle_r	ankle_angle_r	subtalar_angle_r	mtp_angle_r	hip_flexion_l	hip_adduction_l	hip_rotation_l	knee_angle_l	ankle_angle_l	subtalar_angle_l	mtp_angle_l	lumbar_extension	lumbar_bending	lumbar_rotation
      3.92000000	     -0.81600645	      7.09098150	     -2.18657702	     -0.49437044	      0.93453651	      0.20968505	     20.73939274	     -6.75803646	      0.26894827	    -68.89883474	     10.84894602	     -9.46119521	      0.00000000	     14.69394947	     13.72778129	      2.94610014	    -23.87179297	     17.17057681	    -14.61888730	      0.00000000	    -10.02360482	    -10.61231107	     -9.83782169
      3.92500000	     -0.71285836	      6.85334471	     -1.96197841	     -0.48765337	      0.93612164	      0.20927206	     21.21149078	     -6.48983377	      0.23361737	    -68.09217767	     11.49570491	     -8.53763430	      0.00000000	     13.75326089	     13.59104587	      3.49365421	    -23.29920665	     17.16598605	    -14.79402651	      0.00000000	    -10.20695584	    -10.26915262	    -10.03086582
      3.93000000	     -0.62932403	      6.61583029	     -1.72130208	     -0.48094559	      0.93760532	      0.20882734	     21.67042002	     -6.23227133	      0.16392588	    -67.18804695	     12.09023211	     -7.73394555	      0.00000000	     12.84363879	     13.44264909	      4.00429916	    -22.73395339	     17.16579170	    -14.96670510	      0.00000000	    -10.36422502	     -9.91833140	    -10.22368948
      3.93500000	     -0.53276362	      6.38840790	     -1.47074490	     -0.47427271	      0.93906228	      0.20840867	     22.08571637	     -5.97685653	      0.10017004	    -66.19211396	     12.58139747	     -7.04722948	      0.00000000	     11.91644913	     13.29739404	      4.57286645	    -22.15695020	     17.12786763	    -15.15159937	      0.00000000	    -10.54631578	     -9.58712617	    -10.45526608
      3.94000000	     -0.47626101	      6.16347520	     -1.21436351	     -0.46759338	      0.94035979	      0.20795958	     22.51409702	     -5.73785104	      0.00181516	    -65.10837654	     13.04282193	     -6.48473359	      0.00000000	     11.05167917	     13.13764640	      5.04701568	    -21.59784979	     17.12497944	    -15.31354164	      0.00000000	    -10.66967128	     -9.24841749	    -10.65310309
      3.94500000	     -0.39522933	      5.95819711	     -0.94124939	     -0.46094189	      0.94164714	      0.20754416	     22.87964262	     -5.50638864	     -0.07736724	    -63.93173865	     13.41840447	     -6.04903525	      0.00000000	     10.15661964	     12.99217594	      5.59190156	    -21.02850457	     17.06912532	    -15.49371308	      0.00000000	    -10.83307616	     -8.94237484	    -10.91642662
      3.95000000	     -0.34302972	      5.76174501	     -0.66521238	     -0.45429268	      0.94278911	      0.20711960	     23.24762032	     -5.29291618	     -0.17416508	    -62.67383953	     13.76652883	     -5.71915761	      0.00000000	      9.31053210	     12.84213051	      6.07055163	    -20.47595069	     17.03674586	    -15.66022335	      0.00000000	    -10.95469669	     -8.64261734	    -11.15850970
      3.95500000	     -0.29931295	      5.57789680	     -0.38371231	     -0.44764735	      0.94383129	      0.20669954	     23.59340154	     -5.09384735	     -0.27112429	    -61.33470978	     14.07025988	     -5.49240050	      0.00000000	      8.48251751	     12.69577158	      6.53488982	    -19.92987937	     17.00283257	    -15.83016396	      0.00000000	    -11.06431708	     -8.35670588	    -11.40941528
      3.96000000	     -0.26154133	      5.40638808	     -0.09655329	     -0.44100419	      0.94477542	      0.20628822	     23.91328405	     -4.91061554	     -0.36862131	    -59.91577104	     14.33701409	     -5.35053380	      0.00000000	      7.66990233	     12.55422373	      6.98917680	    -19.39143622	     16.96696360	    -16.01161544	      0.00000000	    -11.16496110	     -8.08706535	    -11.66766952
      3.96500000	     -0.23131096	      5.24557976	      0.19493009	     -0.43436133	      0.94561466	      0.20587545	     24.20891802	     -4.74262926	     -0.46317837	    -58.41928672	     14.56878753	     -5.28090453	      0.00000000	      6.87527994	     12.41752882	      7.43573796	    -18.86399588	     16.93446630	    -16.20807584	      0.00000000	    -11.25125188	     -7.82815930	    -11.92891926
      3.97000000	     -0.22364677	      5.08440854	      0.48670290	     -0.42771848	      0.94632031	      0.20545462	     24.50042815	     -4.58880047	     -0.58236957	    -56.85039370	     14.77346794	     -5.27305989	      0.00000000	      6.11468191	     12.27396601	      7.85501884	    -18.34473631	     16.91725353	    -16.41269947	      0.00000000	    -11.30831049	     -7.56553486	    -12.15394150
      3.97500000	     -0.17942514	      4.95189698	      0.78382286	     -0.42110677	      0.94699248	      0.20508594	     24.71874364	     -4.45217666	     -0.65454053	    -55.20939228	     14.94279580	     -5.30602202	      0.00000000	      5.31578130	     12.15619376	      8.34317587	    -17.82644133	     16.85654383	    -16.67697911	      0.00000000	    -11.41774417	     -7.34671246	    -12.46424153
      3.98000000	     -0.19826397	      4.80187925	      1.06394114	     -0.41445770	      0.94746111	      0.20470114	     24.97853956	     -4.31627787	     -0.75753904	    -53.50134354	     15.08494864	     -5.37024669	      0.00000000	      4.60191683	     12.01371860	      8.74744809	    -17.33092531	     16.85563855	    -16.92627836	      0.00000000	    -11.43323858	     -7.10446470	    -12.66162728
      3.98500000	     -0.14373917	      4.68661436	      1.36736639	     -0.40785906	      0.94795851	      0.20432747	     25.12117836	     -4.21519463	     -0.82536765	    -51.72391836	     15.20010407	     -5.44368111	      0.00000000	      3.79788984	     11.90764925	      9.28539095	    -16.81953883	     16.76669434	    -17.28294620	      0.00000000	    -11.55588725	     -6.90262055	    -12.99153067
      3.99000000	     -0.14210889	      4.56056448	      1.65035684	     -0.40124246	      0.94827637	      0.20397988	     25.29466736	     -4.11013767	     -0.89666413	    -49.88410589	     15.27673567	     -5.52963959	      0.00000000	      3.06457774	     11.78338598	      9.76864729	    -16.32630026	     16.71724955	    -17.63598609	      0.00000000	    -11.60240843	     -6.69117058	    -13.24021298
      3.99500000	     -0.14171392	      4.44182860	      1.93054528	     -0.39463128	      0.94849781	      0.20363349	     25.43950076	     -4.02353616	     -0.96764386	    -47.98584692	     15.32968461	     -5.60631503	      0.00000000	      2.33711384	     11.66297285	     10.26582682	    -15.84095698	     16.66339680	    -18.01756847	      0.00000000	    -11.64770622	     -6.48975876	    -13.48920002
      4.00000000	     -0.14295178	      4.33196667	      2.20453850	     -0.38802856	      0.94862181	      0.20329423	     25.55487457	     -3.95442885	     -1.03123750	    -46.02878333	     15.36129333	     -5.66400183	      0.00000000	      1.61646504	     11.54834983	     10.77469836	    -15.36308885	     16.60149964	    -18.43706165	      0.00000000	    -11.69190051	     -6.29632698	    -13.73372733
      4.00500000	     -0.15933031	      4.22823289	      2.46943138	     -0.38143701	      0.94863740	      0.20297836	     25.65937000	     -3.89982092	     -1.09195550	    -44.02068882	     15.35652328	     -5.70494849	      0.00000000	      0.92037212	     11.43357652	     11.27404237	    -14.89695334	     16.54751547	    -18.85522987	      0.00000000	    -11.71862924	     -6.11441650	    -13.96360303
      4.01000000	     -0.16439942	      4.13736085	      2.72734598	     -0.37485218	      0.94856334	      0.20265503	     25.71929644	     -3.86978053	     -1.15124138	    -41.96063862	     15.36135946	     -5.70390934	      0.00000000	      0.21952683	     11.33064446	     11.78248538	    -14.44424530	     16.48558946	    -19.32586938	      0.00000000	    -11.76271235	     -5.94429405	    -14.19111870
